%TF.GenerationSoftware,KiCad,Pcbnew,7.0.9-7.0.9~ubuntu22.04.1*%
%TF.CreationDate,2023-12-27T18:05:10-06:00*%
%TF.ProjectId,ESP Breadboard Expander,45535020-4272-4656-9164-626f61726420,v1.0*%
%TF.SameCoordinates,Original*%
%TF.FileFunction,Copper,L4,Bot*%
%TF.FilePolarity,Positive*%
%FSLAX46Y46*%
G04 Gerber Fmt 4.6, Leading zero omitted, Abs format (unit mm)*
G04 Created by KiCad (PCBNEW 7.0.9-7.0.9~ubuntu22.04.1) date 2023-12-27 18:05:10*
%MOMM*%
%LPD*%
G01*
G04 APERTURE LIST*
%TA.AperFunction,ComponentPad*%
%ADD10R,1.700000X1.700000*%
%TD*%
%TA.AperFunction,ComponentPad*%
%ADD11O,1.700000X1.700000*%
%TD*%
%TA.AperFunction,ComponentPad*%
%ADD12R,3.300000X2.000000*%
%TD*%
%TA.AperFunction,ComponentPad*%
%ADD13R,2.000000X4.000000*%
%TD*%
%TA.AperFunction,ComponentPad*%
%ADD14R,2.000000X3.400000*%
%TD*%
%TA.AperFunction,ViaPad*%
%ADD15C,0.800000*%
%TD*%
%TA.AperFunction,Conductor*%
%ADD16C,0.250000*%
%TD*%
G04 APERTURE END LIST*
D10*
%TO.P,J7,1,Pin_1*%
%TO.N,/IO14*%
X42310000Y-62220000D03*
D11*
%TO.P,J7,2,Pin_2*%
%TO.N,/IO27*%
X44850000Y-62220000D03*
%TO.P,J7,3,Pin_3*%
%TO.N,/IO26*%
X47390000Y-62220000D03*
%TO.P,J7,4,Pin_4*%
%TO.N,/IO25*%
X49930000Y-62220000D03*
%TO.P,J7,5,Pin_5*%
%TO.N,/IO33*%
X52470000Y-62220000D03*
%TO.P,J7,6,Pin_6*%
%TO.N,/IO32*%
X55010000Y-62220000D03*
%TO.P,J7,7,Pin_7*%
%TO.N,/IO35*%
X57550000Y-62220000D03*
%TO.P,J7,8,Pin_8*%
%TO.N,/IO34*%
X60090000Y-62220000D03*
%TO.P,J7,9,Pin_9*%
%TO.N,/IO39*%
X62630000Y-62220000D03*
%TO.P,J7,10,Pin_10*%
%TO.N,/IO36*%
X65170000Y-62220000D03*
%TO.P,J7,11,Pin_11*%
%TO.N,/ADC0*%
X67710000Y-62220000D03*
%TO.P,J7,12,Pin_12*%
%TO.N,unconnected-(J7-Pin_12-Pad12)*%
X70250000Y-62220000D03*
%TO.P,J7,13,Pin_13*%
%TO.N,unconnected-(J7-Pin_13-Pad13)*%
X72790000Y-62220000D03*
%TO.P,J7,14,Pin_14*%
%TO.N,unconnected-(J7-Pin_14-Pad14)*%
X75330000Y-62220000D03*
%TD*%
D12*
%TO.P,J10,*%
%TO.N,*%
X122772500Y-82400000D03*
X122772500Y-73400000D03*
D13*
%TO.P,J10,1,1*%
%TO.N,Net-(F1-Pad1)*%
X115722500Y-77900000D03*
D14*
%TO.P,J10,2,2*%
%TO.N,GND*%
X121722500Y-77900000D03*
%TD*%
D10*
%TO.P,J3,1,Pin_1*%
%TO.N,/TX*%
X114475000Y-45650000D03*
D11*
%TO.P,J3,2,Pin_2*%
%TO.N,/RX*%
X114475000Y-48190000D03*
%TO.P,J3,3,Pin_3*%
%TO.N,/IO5*%
X114475000Y-50730000D03*
%TO.P,J3,4,Pin_4*%
%TO.N,/IO4*%
X114475000Y-53270000D03*
%TO.P,J3,5,Pin_5*%
%TO.N,/IO0*%
X114475000Y-55810000D03*
%TO.P,J3,6,Pin_6*%
%TO.N,/IO2*%
X114475000Y-58350000D03*
%TO.P,J3,7,Pin_7*%
%TO.N,GND*%
X114475000Y-60890000D03*
%TO.P,J3,8,Pin_8*%
%TO.N,+5V*%
X114475000Y-63430000D03*
%TD*%
D10*
%TO.P,J8,1,Pin_1*%
%TO.N,+5V*%
X79370000Y-91760000D03*
D11*
%TO.P,J8,2,Pin_2*%
%TO.N,GND*%
X79370000Y-89220000D03*
%TD*%
D10*
%TO.P,J1,1,Pin_1*%
%TO.N,+3.3V*%
X97425000Y-50770000D03*
D11*
%TO.P,J1,2,Pin_2*%
%TO.N,/RX*%
X97425000Y-53310000D03*
%TO.P,J1,3,Pin_3*%
%TO.N,unconnected-(J1-Pin_3-Pad3)*%
X99965000Y-50770000D03*
%TO.P,J1,4,Pin_4*%
%TO.N,/IO0*%
X99965000Y-53310000D03*
%TO.P,J1,5,Pin_5*%
%TO.N,unconnected-(J1-Pin_5-Pad5)*%
X102505000Y-50770000D03*
%TO.P,J1,6,Pin_6*%
%TO.N,/IO2*%
X102505000Y-53310000D03*
%TO.P,J1,7,Pin_7*%
%TO.N,/TX*%
X105045000Y-50770000D03*
%TO.P,J1,8,Pin_8*%
%TO.N,GND*%
X105045000Y-53310000D03*
%TD*%
D10*
%TO.P,J4,1,Pin_1*%
%TO.N,unconnected-(J4-Pin_1-Pad1)*%
X87935000Y-45650000D03*
D11*
%TO.P,J4,2,Pin_2*%
%TO.N,unconnected-(J4-Pin_2-Pad2)*%
X87935000Y-48190000D03*
%TO.P,J4,3,Pin_3*%
%TO.N,/IO36*%
X87935000Y-50730000D03*
%TO.P,J4,4,Pin_4*%
%TO.N,/IO39*%
X87935000Y-53270000D03*
%TO.P,J4,5,Pin_5*%
%TO.N,/IO34*%
X87935000Y-55810000D03*
%TO.P,J4,6,Pin_6*%
%TO.N,/IO35*%
X87935000Y-58350000D03*
%TO.P,J4,7,Pin_7*%
%TO.N,/IO32*%
X87935000Y-60890000D03*
%TO.P,J4,8,Pin_8*%
%TO.N,/IO33*%
X87935000Y-63430000D03*
%TO.P,J4,9,Pin_9*%
%TO.N,/IO25*%
X87935000Y-65970000D03*
%TO.P,J4,10,Pin_10*%
%TO.N,/IO26*%
X87935000Y-68510000D03*
%TO.P,J4,11,Pin_11*%
%TO.N,/IO27*%
X87935000Y-71050000D03*
%TO.P,J4,12,Pin_12*%
%TO.N,/IO14*%
X87935000Y-73590000D03*
%TO.P,J4,13,Pin_13*%
%TO.N,/IO12*%
X87935000Y-76130000D03*
%TO.P,J4,14,Pin_14*%
%TO.N,GND*%
X87935000Y-78670000D03*
%TO.P,J4,15,Pin_15*%
%TO.N,/IO13*%
X87935000Y-81210000D03*
%TO.P,J4,16,Pin_16*%
%TO.N,unconnected-(J4-Pin_16-Pad16)*%
X87935000Y-83750000D03*
%TO.P,J4,17,Pin_17*%
%TO.N,unconnected-(J4-Pin_17-Pad17)*%
X87935000Y-86290000D03*
%TO.P,J4,18,Pin_18*%
%TO.N,unconnected-(J4-Pin_18-Pad18)*%
X87935000Y-88830000D03*
%TO.P,J4,19,Pin_19*%
%TO.N,+5V*%
X87935000Y-91370000D03*
%TD*%
D10*
%TO.P,J5,1,Pin_1*%
%TO.N,GND*%
X110775000Y-45650000D03*
D11*
%TO.P,J5,2,Pin_2*%
%TO.N,/IO23*%
X110775000Y-48190000D03*
%TO.P,J5,3,Pin_3*%
%TO.N,/IO22*%
X110775000Y-50730000D03*
%TO.P,J5,4,Pin_4*%
%TO.N,/TX*%
X110775000Y-53270000D03*
%TO.P,J5,5,Pin_5*%
%TO.N,/RX*%
X110775000Y-55810000D03*
%TO.P,J5,6,Pin_6*%
%TO.N,/IO21*%
X110775000Y-58350000D03*
%TO.P,J5,7,Pin_7*%
%TO.N,GND*%
X110775000Y-60890000D03*
%TO.P,J5,8,Pin_8*%
%TO.N,/IO19*%
X110775000Y-63430000D03*
%TO.P,J5,9,Pin_9*%
%TO.N,/IO18*%
X110775000Y-65970000D03*
%TO.P,J5,10,Pin_10*%
%TO.N,/IO5*%
X110775000Y-68510000D03*
%TO.P,J5,11,Pin_11*%
%TO.N,/IO17*%
X110775000Y-71050000D03*
%TO.P,J5,12,Pin_12*%
%TO.N,/IO16*%
X110775000Y-73590000D03*
%TO.P,J5,13,Pin_13*%
%TO.N,/IO4*%
X110775000Y-76130000D03*
%TO.P,J5,14,Pin_14*%
%TO.N,/IO0*%
X110775000Y-78670000D03*
%TO.P,J5,15,Pin_15*%
%TO.N,/IO2*%
X110775000Y-81210000D03*
%TO.P,J5,16,Pin_16*%
%TO.N,/IO15*%
X110775000Y-83750000D03*
%TO.P,J5,17,Pin_17*%
%TO.N,unconnected-(J5-Pin_17-Pad17)*%
X110775000Y-86290000D03*
%TO.P,J5,18,Pin_18*%
%TO.N,unconnected-(J5-Pin_18-Pad18)*%
X110775000Y-88830000D03*
%TO.P,J5,19,Pin_19*%
%TO.N,unconnected-(J5-Pin_19-Pad19)*%
X110775000Y-91370000D03*
%TD*%
D10*
%TO.P,J2,1,Pin_1*%
%TO.N,unconnected-(J2-Pin_1-Pad1)*%
X91635000Y-45650000D03*
D11*
%TO.P,J2,2,Pin_2*%
%TO.N,/ADC0*%
X91635000Y-48190000D03*
%TO.P,J2,3,Pin_3*%
%TO.N,/IO16*%
X91635000Y-50730000D03*
%TO.P,J2,4,Pin_4*%
%TO.N,/IO14*%
X91635000Y-53270000D03*
%TO.P,J2,5,Pin_5*%
%TO.N,/IO12*%
X91635000Y-55810000D03*
%TO.P,J2,6,Pin_6*%
%TO.N,/IO13*%
X91635000Y-58350000D03*
%TO.P,J2,7,Pin_7*%
%TO.N,/IO15*%
X91635000Y-60890000D03*
%TO.P,J2,8,Pin_8*%
%TO.N,unconnected-(J2-Pin_8-Pad8)*%
X91635000Y-63430000D03*
%TD*%
D10*
%TO.P,J6,1,Pin_1*%
%TO.N,/IO12*%
X42310000Y-74900000D03*
D11*
%TO.P,J6,2,Pin_2*%
%TO.N,/IO13*%
X44850000Y-74900000D03*
%TO.P,J6,3,Pin_3*%
%TO.N,/IO16*%
X47390000Y-74900000D03*
%TO.P,J6,4,Pin_4*%
%TO.N,/IO15*%
X49930000Y-74900000D03*
%TO.P,J6,5,Pin_5*%
%TO.N,/IO23*%
X52470000Y-74900000D03*
%TO.P,J6,6,Pin_6*%
%TO.N,/IO22*%
X55010000Y-74900000D03*
%TO.P,J6,7,Pin_7*%
%TO.N,/IO21*%
X57550000Y-74900000D03*
%TO.P,J6,8,Pin_8*%
%TO.N,/IO19*%
X60090000Y-74900000D03*
%TO.P,J6,9,Pin_9*%
%TO.N,/IO18*%
X62630000Y-74900000D03*
%TO.P,J6,10,Pin_10*%
%TO.N,/IO5*%
X65170000Y-74900000D03*
%TO.P,J6,11,Pin_11*%
%TO.N,/IO17*%
X67710000Y-74900000D03*
%TO.P,J6,12,Pin_12*%
%TO.N,/IO4*%
X70250000Y-74900000D03*
%TO.P,J6,13,Pin_13*%
%TO.N,/IO2*%
X72790000Y-74900000D03*
%TO.P,J6,14,Pin_14*%
%TO.N,/IO0*%
X75330000Y-74900000D03*
%TD*%
D10*
%TO.P,J9,1,Pin_1*%
%TO.N,+3.3V*%
X79370000Y-47900000D03*
D11*
%TO.P,J9,2,Pin_2*%
%TO.N,GND*%
X79370000Y-45360000D03*
%TD*%
D15*
%TO.N,GND*%
X125050000Y-84910000D03*
X108000000Y-48800000D03*
X108500000Y-62200000D03*
X126100000Y-64000000D03*
X116700000Y-59600000D03*
X84350000Y-77970000D03*
X118800000Y-63500000D03*
%TO.N,+3.3V*%
X118700000Y-83900000D03*
X94512299Y-75412299D03*
X85600000Y-47900000D03*
X94100000Y-46900000D03*
X116700000Y-47000000D03*
X92500000Y-74400000D03*
X108500000Y-47000000D03*
%TO.N,Net-(D1-K)*%
X121500000Y-85200000D03*
X122100000Y-87600000D03*
%TO.N,/TX*%
X107300000Y-50770000D03*
X114724500Y-87200000D03*
X108550000Y-54700000D03*
X113200000Y-87200000D03*
%TO.N,Net-(D3-K)*%
X121500000Y-89200000D03*
X122100000Y-86000000D03*
%TO.N,/RX*%
X98987796Y-56900000D03*
X116700000Y-48200000D03*
X114764500Y-89240000D03*
X113200000Y-89200000D03*
X108550000Y-55800000D03*
%TO.N,/IO0*%
X99987299Y-56900000D03*
X90200000Y-90824500D03*
X108550000Y-78600000D03*
X104000000Y-80000000D03*
X83999647Y-87450353D03*
X116750000Y-55800000D03*
X103229000Y-56800000D03*
X106625500Y-78100000D03*
%TO.N,/IO2*%
X108537299Y-59737299D03*
X104000000Y-78900000D03*
X106498280Y-74324500D03*
X116700000Y-58375353D03*
X108550000Y-81200000D03*
%TO.N,/IO16*%
X89750000Y-72800000D03*
X107199503Y-73589503D03*
X84725500Y-72798695D03*
X104475500Y-73600000D03*
%TO.N,/IO14*%
X97400000Y-72000000D03*
X96400000Y-73590000D03*
%TO.N,/IO12*%
X92912299Y-76112299D03*
X96300000Y-72000000D03*
%TO.N,/IO13*%
X95150000Y-72000000D03*
X85450000Y-74900000D03*
X90976289Y-81349500D03*
%TO.N,/IO5*%
X102912701Y-75887299D03*
X106824500Y-68500000D03*
X116650000Y-50800000D03*
%TO.N,/IO4*%
X116750000Y-53300000D03*
X104000000Y-77800000D03*
X108550000Y-76100000D03*
X106450938Y-75476339D03*
%TO.N,/IO23*%
X98574952Y-71125048D03*
X97400000Y-75455305D03*
X101700000Y-57524500D03*
X104200000Y-57500000D03*
X90150000Y-78124500D03*
X85550000Y-77400000D03*
%TO.N,/IO22*%
X99600000Y-71100000D03*
X98600000Y-75455305D03*
X104200000Y-58600000D03*
X101700000Y-58600000D03*
%TO.N,/IO21*%
X99700000Y-75455305D03*
X100700000Y-71100000D03*
X84350000Y-80600000D03*
X90150000Y-80624500D03*
X104200000Y-59700000D03*
X101700000Y-59700000D03*
%TO.N,/IO19*%
X100800000Y-75455305D03*
X104475500Y-63400000D03*
X102000000Y-71100000D03*
X106824500Y-63400000D03*
%TO.N,/IO18*%
X106824500Y-66100000D03*
X83971558Y-82478442D03*
X101900000Y-75500000D03*
X90200000Y-83224500D03*
%TO.N,/IO17*%
X83950000Y-85000000D03*
X106824500Y-71050000D03*
X103762701Y-76737299D03*
X90200000Y-85724500D03*
%TD*%
D16*
%TO.N,GND*%
X116700000Y-59600000D02*
X113900000Y-59600000D01*
X111300000Y-62200000D02*
X108500000Y-62200000D01*
X113900000Y-59600000D02*
X111300000Y-62200000D01*
%TO.N,+3.3V*%
X117300000Y-82500000D02*
X101600000Y-82500000D01*
X92500000Y-74400000D02*
X92500000Y-73900000D01*
X92500000Y-73900000D02*
X94100000Y-72300000D01*
X94100000Y-46900000D02*
X86600000Y-46900000D01*
X101600000Y-82500000D02*
X94512299Y-75412299D01*
X94100000Y-46900000D02*
X94100000Y-72300000D01*
X116700000Y-47000000D02*
X108500000Y-47000000D01*
X118700000Y-83900000D02*
X117300000Y-82500000D01*
X86600000Y-46900000D02*
X85600000Y-47900000D01*
%TO.N,Net-(D1-K)*%
X121375000Y-86875000D02*
X121375000Y-85325000D01*
X122100000Y-87600000D02*
X121375000Y-86875000D01*
X121375000Y-85325000D02*
X121500000Y-85200000D01*
%TO.N,/TX*%
X108550000Y-52020000D02*
X107300000Y-50770000D01*
X108550000Y-54700000D02*
X108550000Y-52020000D01*
X113200000Y-87200000D02*
X114724500Y-87200000D01*
%TO.N,Net-(D3-K)*%
X122825000Y-88700305D02*
X122325305Y-89200000D01*
X122100000Y-86000000D02*
X122825000Y-86725000D01*
X122325305Y-89200000D02*
X121500000Y-89200000D01*
X122825000Y-86725000D02*
X122825000Y-88700305D01*
%TO.N,/RX*%
X112300000Y-51056701D02*
X112300000Y-54100000D01*
X104125305Y-56400000D02*
X107950000Y-56400000D01*
X113856701Y-49500000D02*
X112300000Y-51056701D01*
X99262299Y-56599695D02*
X99786994Y-56075000D01*
X115400000Y-49500000D02*
X113856701Y-49500000D01*
X112300000Y-54100000D02*
X110600000Y-55800000D01*
X113200000Y-89200000D02*
X114724500Y-89200000D01*
X98987796Y-56900000D02*
X99262299Y-56625497D01*
X99786994Y-56075000D02*
X103800305Y-56075000D01*
X116700000Y-48200000D02*
X115400000Y-49500000D01*
X99262299Y-56625497D02*
X99262299Y-56599695D01*
X114724500Y-89200000D02*
X114764500Y-89240000D01*
X110600000Y-55800000D02*
X108550000Y-55800000D01*
X103800305Y-56075000D02*
X104125305Y-56400000D01*
X107950000Y-56400000D02*
X108550000Y-55800000D01*
%TO.N,/IO0*%
X115400000Y-62200000D02*
X113900000Y-62200000D01*
X116750000Y-55800000D02*
X117550000Y-56600000D01*
X117550000Y-60050000D02*
X115400000Y-62200000D01*
X88500000Y-87500000D02*
X84049294Y-87500000D01*
X113900000Y-62200000D02*
X112350000Y-63750000D01*
X112350000Y-63750000D02*
X112350000Y-71400000D01*
X112350000Y-71400000D02*
X111450000Y-72300000D01*
X99987299Y-56900000D02*
X100087299Y-56800000D01*
X90200000Y-90824500D02*
X90200000Y-89200000D01*
X110150000Y-72300000D02*
X107800000Y-74650000D01*
X111450000Y-72300000D02*
X110150000Y-72300000D01*
X104000000Y-80000000D02*
X105900000Y-78100000D01*
X105900000Y-78100000D02*
X106625500Y-78100000D01*
X107800000Y-77850000D02*
X108550000Y-78600000D01*
X100087299Y-56800000D02*
X103229000Y-56800000D01*
X117550000Y-56600000D02*
X117550000Y-60050000D01*
X90200000Y-89200000D02*
X88500000Y-87500000D01*
X84049294Y-87500000D02*
X83999647Y-87450353D01*
X107800000Y-74650000D02*
X107800000Y-77850000D01*
%TO.N,/IO2*%
X104000000Y-78900000D02*
X106450000Y-76450000D01*
X106450000Y-76450000D02*
X107350000Y-76450000D01*
X115424647Y-57100000D02*
X116700000Y-58375353D01*
X108674598Y-59600000D02*
X111400000Y-59600000D01*
X107350000Y-75150000D02*
X107350000Y-80000000D01*
X108537299Y-59737299D02*
X108674598Y-59600000D01*
X106498280Y-74324500D02*
X106524500Y-74324500D01*
X111400000Y-59600000D02*
X113900000Y-57100000D01*
X113900000Y-57100000D02*
X115424647Y-57100000D01*
X106524500Y-74324500D02*
X107350000Y-75150000D01*
X107350000Y-80000000D02*
X108550000Y-81200000D01*
%TO.N,/IO16*%
X89365000Y-72415000D02*
X89750000Y-72800000D01*
X84725500Y-72798695D02*
X85109195Y-72415000D01*
X107189006Y-73600000D02*
X107199503Y-73589503D01*
X85109195Y-72415000D02*
X89365000Y-72415000D01*
X104475500Y-73600000D02*
X107189006Y-73600000D01*
%TO.N,/IO14*%
X97400000Y-72000000D02*
X97400000Y-72590000D01*
X97400000Y-72590000D02*
X96400000Y-73590000D01*
%TO.N,/IO12*%
X96300000Y-72000000D02*
X96300000Y-72600000D01*
X92912299Y-75987701D02*
X92912299Y-76112299D01*
X96300000Y-72600000D02*
X92912299Y-75987701D01*
%TO.N,/IO13*%
X95150000Y-72850000D02*
X90950000Y-77050000D01*
X90950000Y-77341650D02*
X88508350Y-74900000D01*
X90950000Y-81323211D02*
X90950000Y-77341650D01*
X95150000Y-72000000D02*
X95150000Y-72850000D01*
X90976289Y-81349500D02*
X90950000Y-81323211D01*
X90950000Y-77050000D02*
X90950000Y-77300000D01*
X88508350Y-74900000D02*
X85450000Y-74900000D01*
%TO.N,/IO5*%
X112900000Y-55800000D02*
X112900000Y-52400000D01*
X115450000Y-52000000D02*
X116650000Y-50800000D01*
X105060896Y-68500000D02*
X103250000Y-70310896D01*
X102900000Y-75874598D02*
X102912701Y-75887299D01*
X107600000Y-59400000D02*
X109900000Y-57100000D01*
X106824500Y-68500000D02*
X105060896Y-68500000D01*
X103250000Y-70310896D02*
X103250000Y-72786396D01*
X103250000Y-72786396D02*
X102900000Y-73136396D01*
X106824500Y-68500000D02*
X107600000Y-67724500D01*
X102900000Y-73136396D02*
X102900000Y-75874598D01*
X107600000Y-67724500D02*
X107600000Y-59400000D01*
X109900000Y-57100000D02*
X111600000Y-57100000D01*
X111600000Y-57100000D02*
X112900000Y-55800000D01*
X113300000Y-52000000D02*
X115450000Y-52000000D01*
X112900000Y-52400000D02*
X113300000Y-52000000D01*
%TO.N,/IO4*%
X116100000Y-64900000D02*
X116100000Y-62136396D01*
X116100000Y-62136396D02*
X118000000Y-60236396D01*
X109750000Y-74900000D02*
X111350000Y-74900000D01*
X112800000Y-71586396D02*
X112800000Y-69522792D01*
X112350000Y-72036396D02*
X112800000Y-71586396D01*
X112350000Y-73900000D02*
X112350000Y-72036396D01*
X113350000Y-68972792D02*
X113350000Y-65000000D01*
X116000000Y-65000000D02*
X116100000Y-64900000D01*
X111350000Y-74900000D02*
X112350000Y-73900000D01*
X112800000Y-69522792D02*
X113350000Y-68972792D01*
X113350000Y-65000000D02*
X116000000Y-65000000D01*
X104000000Y-77800000D02*
X106323661Y-75476339D01*
X106323661Y-75476339D02*
X106450938Y-75476339D01*
X108550000Y-76100000D02*
X109750000Y-74900000D01*
X118000000Y-60236396D02*
X118000000Y-54550000D01*
X118000000Y-54550000D02*
X116750000Y-53300000D01*
%TO.N,/IO23*%
X97325000Y-75380305D02*
X97400000Y-75455305D01*
X90150000Y-78124500D02*
X89425500Y-77400000D01*
X97325000Y-73975000D02*
X97325000Y-75380305D01*
X98574952Y-72725048D02*
X97325000Y-73975000D01*
X98574952Y-71125048D02*
X98574952Y-72725048D01*
X89425500Y-77400000D02*
X85550000Y-77400000D01*
X104175500Y-57524500D02*
X101700000Y-57524500D01*
X104200000Y-57500000D02*
X104175500Y-57524500D01*
%TO.N,/IO22*%
X99600000Y-71100000D02*
X99600000Y-72700000D01*
X99600000Y-72700000D02*
X98600000Y-73700000D01*
X98600000Y-73700000D02*
X98600000Y-75455305D01*
X104200000Y-58600000D02*
X101700000Y-58600000D01*
%TO.N,/IO21*%
X100700000Y-71100000D02*
X100700000Y-72700000D01*
X85050000Y-79900000D02*
X84350000Y-80600000D01*
X90150000Y-80624500D02*
X89425500Y-79900000D01*
X89425500Y-79900000D02*
X85050000Y-79900000D01*
X100700000Y-72700000D02*
X99700000Y-73700000D01*
X99700000Y-73700000D02*
X99700000Y-75455305D01*
X104200000Y-59700000D02*
X101700000Y-59700000D01*
%TO.N,/IO19*%
X102000000Y-72700000D02*
X100800000Y-73900000D01*
X100800000Y-73900000D02*
X100800000Y-75455305D01*
X102000000Y-71100000D02*
X102000000Y-72700000D01*
X104475500Y-63400000D02*
X106824500Y-63400000D01*
%TO.N,/IO18*%
X106824500Y-66100000D02*
X102800000Y-70124500D01*
X102800000Y-72600000D02*
X101900000Y-73500000D01*
X101900000Y-73500000D02*
X101900000Y-75500000D01*
X102800000Y-70124500D02*
X102800000Y-72600000D01*
X83993116Y-82500000D02*
X83971558Y-82478442D01*
X90200000Y-83200000D02*
X89500000Y-82500000D01*
X89500000Y-82500000D02*
X83993116Y-82500000D01*
X90200000Y-83224500D02*
X90200000Y-83200000D01*
%TO.N,/IO17*%
X90200000Y-85724500D02*
X90200000Y-85700000D01*
X89500000Y-85000000D02*
X83950000Y-85000000D01*
X103700000Y-76674598D02*
X103762701Y-76737299D01*
X106824500Y-71050000D02*
X104150000Y-71050000D01*
X104150000Y-71050000D02*
X103700000Y-71500000D01*
X90200000Y-85700000D02*
X89500000Y-85000000D01*
X103700000Y-71500000D02*
X103700000Y-76674598D01*
%TD*%
M02*
