M48
; DRILL file {KiCad 7.0.9-7.0.9~ubuntu22.04.1} date Thu 04 Jan 2024 08:39:28 PM CST
; FORMAT={-:-/ absolute / inch / decimal}
; #@! TF.CreationDate,2024-01-04T20:39:28-06:00
; #@! TF.GenerationSoftware,Kicad,Pcbnew,7.0.9-7.0.9~ubuntu22.04.1
; #@! TF.FileFunction,Plated,1,4,PTH
FMAT,2
INCH
; #@! TA.AperFunction,Plated,PTH,ViaDrill
T1C0.0157
; #@! TA.AperFunction,Plated,PTH,ComponentDrill
T2C0.0394
%
G90
G05
T1
X3.3051Y-3.3465
X3.306Y-3.2472
X3.3071Y-3.4429
X3.3209Y-3.0697
X3.3209Y-3.1732
X3.3356Y-2.8661
X3.3642Y-2.9488
X3.3681Y-3.0472
X3.3701Y-1.8858
X3.5335Y-2.8661
X3.5492Y-3.0758
X3.5492Y-3.1742
X3.5512Y-3.2766
X3.5512Y-3.375
X3.5512Y-3.5758
X3.5817Y-3.2027
X3.6417Y-2.9291
X3.658Y-2.9965
X3.7047Y-1.8465
X3.721Y-2.969
X3.7461Y-2.8346
X3.7913Y-2.8346
X3.7953Y-2.8972
X3.8346Y-2.8346
X3.8346Y-2.9707
X3.8809Y-2.8002
X3.8819Y-2.9707
X3.8972Y-2.2402
X3.9213Y-2.7992
X3.9252Y-2.9707
X3.9365Y-2.2402
X3.9646Y-2.7992
X3.9685Y-2.9707
X4.0039Y-2.2647
X4.0039Y-2.3071
X4.0039Y-2.3504
X4.0118Y-2.9724
X4.0157Y-2.7992
X4.0517Y-2.9877
X4.0641Y-2.2362
X4.0851Y-3.0212
X4.0945Y-3.063
X4.0945Y-3.1063
X4.0945Y-3.1496
X4.1024Y-2.2638
X4.1024Y-2.3071
X4.1024Y-2.3504
X4.1132Y-2.4961
X4.1132Y-2.8976
X4.191Y-2.9715
X4.1928Y-2.9262
X4.1979Y-3.0748
X4.2057Y-2.4961
X4.2057Y-2.6024
X4.2057Y-2.6969
X4.2057Y-2.7972
X4.2205Y-2.8972
X4.2244Y-1.9988
X4.252Y-1.9213
X4.2717Y-1.8504
X4.2717Y-2.4488
X4.2731Y-2.3519
X4.2736Y-2.1535
X4.2736Y-2.1969
X4.2736Y-2.9961
X4.2736Y-3.0945
X4.2736Y-3.1969
X4.4528Y-3.5118
X4.4537Y-3.4685
X4.5925Y-2.0
X4.5945Y-1.8504
X4.5945Y-1.8976
X4.5945Y-2.2982
X4.5945Y-2.3465
X4.5965Y-2.0984
X4.5965Y-2.1969
X4.6339Y-3.6142
X4.6772Y-2.5
X4.7323Y-3.3031
X4.7874Y-3.5118
X4.9134Y-3.5118
X4.9646Y-2.5197
T2
X1.6657Y-2.4496
X1.6657Y-2.9488
X1.7657Y-2.4496
X1.7657Y-2.9488
X1.8657Y-2.4496
X1.8657Y-2.9488
X1.9657Y-2.4496
X1.9657Y-2.9488
X2.0657Y-2.4496
X2.0657Y-2.9488
X2.1657Y-2.4496
X2.1657Y-2.9488
X2.2657Y-2.4496
X2.2657Y-2.9488
X2.3657Y-2.4496
X2.3657Y-2.9488
X2.4657Y-2.4496
X2.4657Y-2.9488
X2.5657Y-2.4496
X2.5657Y-2.9488
X2.6657Y-2.4496
X2.6657Y-2.9488
X2.7657Y-2.4496
X2.7657Y-2.9488
X2.8657Y-2.4496
X2.8657Y-2.9488
X2.9657Y-2.4496
X2.9657Y-2.9488
X3.1248Y-1.7858
X3.1248Y-1.8858
X3.1248Y-3.5126
X3.1248Y-3.6126
X3.462Y-1.7972
X3.462Y-1.8972
X3.462Y-1.9972
X3.462Y-2.0972
X3.462Y-2.1972
X3.462Y-2.2972
X3.462Y-2.3972
X3.462Y-2.4972
X3.462Y-2.5972
X3.462Y-2.6972
X3.462Y-2.7972
X3.462Y-2.8972
X3.462Y-2.9972
X3.462Y-3.0972
X3.462Y-3.1972
X3.462Y-3.2972
X3.462Y-3.3972
X3.462Y-3.4972
X3.462Y-3.5972
X3.6077Y-1.7972
X3.6077Y-1.8972
X3.6077Y-1.9972
X3.6077Y-2.0972
X3.6077Y-2.1972
X3.6077Y-2.2972
X3.6077Y-2.3972
X3.6077Y-2.4972
X3.8356Y-1.9988
X3.8356Y-2.0988
X3.9356Y-1.9988
X3.9356Y-2.0988
X4.0356Y-1.9988
X4.0356Y-2.0988
X4.1356Y-1.9988
X4.1356Y-2.0988
X4.3612Y-1.7972
X4.3612Y-1.8972
X4.3612Y-1.9972
X4.3612Y-2.0972
X4.3612Y-2.1972
X4.3612Y-2.2972
X4.3612Y-2.3972
X4.3612Y-2.4972
X4.3612Y-2.5972
X4.3612Y-2.6972
X4.3612Y-2.7972
X4.3612Y-2.8972
X4.3612Y-2.9972
X4.3612Y-3.0972
X4.3612Y-3.1972
X4.3612Y-3.2972
X4.3612Y-3.3972
X4.3612Y-3.4972
X4.3612Y-3.5972
X4.5069Y-1.7972
X4.5069Y-1.8972
X4.5069Y-1.9972
X4.5069Y-2.0972
X4.5069Y-2.1972
X4.5069Y-2.2972
X4.5069Y-2.3972
X4.5069Y-2.4972
T2
G00X4.556Y-3.0276
M15
G01X4.556Y-3.1063
M16
G05
G00X4.7922Y-3.0413
M15
G01X4.7922Y-3.0925
M16
G05
G00X4.808Y-2.8898
M15
G01X4.8592Y-2.8898
M16
G05
G00X4.8592Y-3.2441
M15
G01X4.808Y-3.2441
M16
G05
T0
M30
