%TF.GenerationSoftware,KiCad,Pcbnew,7.0.9-7.0.9~ubuntu22.04.1*%
%TF.CreationDate,2024-01-04T20:48:59-06:00*%
%TF.ProjectId,ESP Breadboard Expander,45535020-4272-4656-9164-626f61726420,v2.0*%
%TF.SameCoordinates,Original*%
%TF.FileFunction,Legend,Bot*%
%TF.FilePolarity,Positive*%
%FSLAX46Y46*%
G04 Gerber Fmt 4.6, Leading zero omitted, Abs format (unit mm)*
G04 Created by KiCad (PCBNEW 7.0.9-7.0.9~ubuntu22.04.1) date 2024-01-04 20:48:59*
%MOMM*%
%LPD*%
G01*
G04 APERTURE LIST*
%ADD10C,0.153000*%
%ADD11R,1.700000X1.700000*%
%ADD12O,1.700000X1.700000*%
%ADD13R,3.300000X2.000000*%
%ADD14R,2.000000X4.000000*%
%ADD15R,2.000000X3.400000*%
G04 APERTURE END LIST*
D10*
X125769663Y-44624466D02*
X126483948Y-44624466D01*
X126483948Y-44624466D02*
X126626805Y-44576847D01*
X126626805Y-44576847D02*
X126722044Y-44481609D01*
X126722044Y-44481609D02*
X126769663Y-44338752D01*
X126769663Y-44338752D02*
X126769663Y-44243514D01*
X126769663Y-45576847D02*
X126769663Y-45100657D01*
X126769663Y-45100657D02*
X125769663Y-45100657D01*
X126674424Y-46481609D02*
X126722044Y-46433990D01*
X126722044Y-46433990D02*
X126769663Y-46291133D01*
X126769663Y-46291133D02*
X126769663Y-46195895D01*
X126769663Y-46195895D02*
X126722044Y-46053038D01*
X126722044Y-46053038D02*
X126626805Y-45957800D01*
X126626805Y-45957800D02*
X126531567Y-45910181D01*
X126531567Y-45910181D02*
X126341091Y-45862562D01*
X126341091Y-45862562D02*
X126198234Y-45862562D01*
X126198234Y-45862562D02*
X126007758Y-45910181D01*
X126007758Y-45910181D02*
X125912520Y-45957800D01*
X125912520Y-45957800D02*
X125817282Y-46053038D01*
X125817282Y-46053038D02*
X125769663Y-46195895D01*
X125769663Y-46195895D02*
X125769663Y-46291133D01*
X125769663Y-46291133D02*
X125817282Y-46433990D01*
X125817282Y-46433990D02*
X125864901Y-46481609D01*
X125769663Y-47195895D02*
X126483948Y-47195895D01*
X126483948Y-47195895D02*
X126626805Y-47148276D01*
X126626805Y-47148276D02*
X126722044Y-47053038D01*
X126722044Y-47053038D02*
X126769663Y-46910181D01*
X126769663Y-46910181D02*
X126769663Y-46814943D01*
X126769663Y-48148276D02*
X126769663Y-47672086D01*
X126769663Y-47672086D02*
X125769663Y-47672086D01*
X126674424Y-49053038D02*
X126722044Y-49005419D01*
X126722044Y-49005419D02*
X126769663Y-48862562D01*
X126769663Y-48862562D02*
X126769663Y-48767324D01*
X126769663Y-48767324D02*
X126722044Y-48624467D01*
X126722044Y-48624467D02*
X126626805Y-48529229D01*
X126626805Y-48529229D02*
X126531567Y-48481610D01*
X126531567Y-48481610D02*
X126341091Y-48433991D01*
X126341091Y-48433991D02*
X126198234Y-48433991D01*
X126198234Y-48433991D02*
X126007758Y-48481610D01*
X126007758Y-48481610D02*
X125912520Y-48529229D01*
X125912520Y-48529229D02*
X125817282Y-48624467D01*
X125817282Y-48624467D02*
X125769663Y-48767324D01*
X125769663Y-48767324D02*
X125769663Y-48862562D01*
X125769663Y-48862562D02*
X125817282Y-49005419D01*
X125817282Y-49005419D02*
X125864901Y-49053038D01*
X125769663Y-49767324D02*
X126483948Y-49767324D01*
X126483948Y-49767324D02*
X126626805Y-49719705D01*
X126626805Y-49719705D02*
X126722044Y-49624467D01*
X126722044Y-49624467D02*
X126769663Y-49481610D01*
X126769663Y-49481610D02*
X126769663Y-49386372D01*
X126769663Y-50719705D02*
X126769663Y-50243515D01*
X126769663Y-50243515D02*
X125769663Y-50243515D01*
X126674424Y-51624467D02*
X126722044Y-51576848D01*
X126722044Y-51576848D02*
X126769663Y-51433991D01*
X126769663Y-51433991D02*
X126769663Y-51338753D01*
X126769663Y-51338753D02*
X126722044Y-51195896D01*
X126722044Y-51195896D02*
X126626805Y-51100658D01*
X126626805Y-51100658D02*
X126531567Y-51053039D01*
X126531567Y-51053039D02*
X126341091Y-51005420D01*
X126341091Y-51005420D02*
X126198234Y-51005420D01*
X126198234Y-51005420D02*
X126007758Y-51053039D01*
X126007758Y-51053039D02*
X125912520Y-51100658D01*
X125912520Y-51100658D02*
X125817282Y-51195896D01*
X125817282Y-51195896D02*
X125769663Y-51338753D01*
X125769663Y-51338753D02*
X125769663Y-51433991D01*
X125769663Y-51433991D02*
X125817282Y-51576848D01*
X125817282Y-51576848D02*
X125864901Y-51624467D01*
X125769663Y-52338753D02*
X126483948Y-52338753D01*
X126483948Y-52338753D02*
X126626805Y-52291134D01*
X126626805Y-52291134D02*
X126722044Y-52195896D01*
X126722044Y-52195896D02*
X126769663Y-52053039D01*
X126769663Y-52053039D02*
X126769663Y-51957801D01*
X126769663Y-53291134D02*
X126769663Y-52814944D01*
X126769663Y-52814944D02*
X125769663Y-52814944D01*
X126674424Y-54195896D02*
X126722044Y-54148277D01*
X126722044Y-54148277D02*
X126769663Y-54005420D01*
X126769663Y-54005420D02*
X126769663Y-53910182D01*
X126769663Y-53910182D02*
X126722044Y-53767325D01*
X126722044Y-53767325D02*
X126626805Y-53672087D01*
X126626805Y-53672087D02*
X126531567Y-53624468D01*
X126531567Y-53624468D02*
X126341091Y-53576849D01*
X126341091Y-53576849D02*
X126198234Y-53576849D01*
X126198234Y-53576849D02*
X126007758Y-53624468D01*
X126007758Y-53624468D02*
X125912520Y-53672087D01*
X125912520Y-53672087D02*
X125817282Y-53767325D01*
X125817282Y-53767325D02*
X125769663Y-53910182D01*
X125769663Y-53910182D02*
X125769663Y-54005420D01*
X125769663Y-54005420D02*
X125817282Y-54148277D01*
X125817282Y-54148277D02*
X125864901Y-54195896D01*
%LPC*%
D11*
%TO.C,J7*%
X42310000Y-62220000D03*
D12*
X44850000Y-62220000D03*
X47390000Y-62220000D03*
X49930000Y-62220000D03*
X52470000Y-62220000D03*
X55010000Y-62220000D03*
X57550000Y-62220000D03*
X60090000Y-62220000D03*
X62630000Y-62220000D03*
X65170000Y-62220000D03*
X67710000Y-62220000D03*
X70250000Y-62220000D03*
X72790000Y-62220000D03*
X75330000Y-62220000D03*
%TD*%
D13*
%TO.C,J10*%
X122772500Y-82400000D03*
X122772500Y-73400000D03*
D14*
X115722500Y-77900000D03*
D15*
X121722500Y-77900000D03*
%TD*%
D11*
%TO.C,J3*%
X114475000Y-45650000D03*
D12*
X114475000Y-48190000D03*
X114475000Y-50730000D03*
X114475000Y-53270000D03*
X114475000Y-55810000D03*
X114475000Y-58350000D03*
X114475000Y-60890000D03*
X114475000Y-63430000D03*
%TD*%
D11*
%TO.C,J8*%
X79370000Y-91760000D03*
D12*
X79370000Y-89220000D03*
%TD*%
D11*
%TO.C,J1*%
X97425000Y-50770000D03*
D12*
X97425000Y-53310000D03*
X99965000Y-50770000D03*
X99965000Y-53310000D03*
X102505000Y-50770000D03*
X102505000Y-53310000D03*
X105045000Y-50770000D03*
X105045000Y-53310000D03*
%TD*%
D11*
%TO.C,J4*%
X87935000Y-45650000D03*
D12*
X87935000Y-48190000D03*
X87935000Y-50730000D03*
X87935000Y-53270000D03*
X87935000Y-55810000D03*
X87935000Y-58350000D03*
X87935000Y-60890000D03*
X87935000Y-63430000D03*
X87935000Y-65970000D03*
X87935000Y-68510000D03*
X87935000Y-71050000D03*
X87935000Y-73590000D03*
X87935000Y-76130000D03*
X87935000Y-78670000D03*
X87935000Y-81210000D03*
X87935000Y-83750000D03*
X87935000Y-86290000D03*
X87935000Y-88830000D03*
X87935000Y-91370000D03*
%TD*%
D11*
%TO.C,J5*%
X110775000Y-45650000D03*
D12*
X110775000Y-48190000D03*
X110775000Y-50730000D03*
X110775000Y-53270000D03*
X110775000Y-55810000D03*
X110775000Y-58350000D03*
X110775000Y-60890000D03*
X110775000Y-63430000D03*
X110775000Y-65970000D03*
X110775000Y-68510000D03*
X110775000Y-71050000D03*
X110775000Y-73590000D03*
X110775000Y-76130000D03*
X110775000Y-78670000D03*
X110775000Y-81210000D03*
X110775000Y-83750000D03*
X110775000Y-86290000D03*
X110775000Y-88830000D03*
X110775000Y-91370000D03*
%TD*%
D11*
%TO.C,J2*%
X91635000Y-45650000D03*
D12*
X91635000Y-48190000D03*
X91635000Y-50730000D03*
X91635000Y-53270000D03*
X91635000Y-55810000D03*
X91635000Y-58350000D03*
X91635000Y-60890000D03*
X91635000Y-63430000D03*
%TD*%
D11*
%TO.C,J6*%
X42310000Y-74900000D03*
D12*
X44850000Y-74900000D03*
X47390000Y-74900000D03*
X49930000Y-74900000D03*
X52470000Y-74900000D03*
X55010000Y-74900000D03*
X57550000Y-74900000D03*
X60090000Y-74900000D03*
X62630000Y-74900000D03*
X65170000Y-74900000D03*
X67710000Y-74900000D03*
X70250000Y-74900000D03*
X72790000Y-74900000D03*
X75330000Y-74900000D03*
%TD*%
D11*
%TO.C,J9*%
X79370000Y-47900000D03*
D12*
X79370000Y-45360000D03*
%TD*%
%LPD*%
M02*
