%TF.GenerationSoftware,KiCad,Pcbnew,7.0.9-7.0.9~ubuntu22.04.1*%
%TF.CreationDate,2023-12-27T18:05:09-06:00*%
%TF.ProjectId,ESP Breadboard Expander,45535020-4272-4656-9164-626f61726420,v1.0*%
%TF.SameCoordinates,Original*%
%TF.FileFunction,Copper,L1,Top*%
%TF.FilePolarity,Positive*%
%FSLAX46Y46*%
G04 Gerber Fmt 4.6, Leading zero omitted, Abs format (unit mm)*
G04 Created by KiCad (PCBNEW 7.0.9-7.0.9~ubuntu22.04.1) date 2023-12-27 18:05:09*
%MOMM*%
%LPD*%
G01*
G04 APERTURE LIST*
G04 Aperture macros list*
%AMRoundRect*
0 Rectangle with rounded corners*
0 $1 Rounding radius*
0 $2 $3 $4 $5 $6 $7 $8 $9 X,Y pos of 4 corners*
0 Add a 4 corners polygon primitive as box body*
4,1,4,$2,$3,$4,$5,$6,$7,$8,$9,$2,$3,0*
0 Add four circle primitives for the rounded corners*
1,1,$1+$1,$2,$3*
1,1,$1+$1,$4,$5*
1,1,$1+$1,$6,$7*
1,1,$1+$1,$8,$9*
0 Add four rect primitives between the rounded corners*
20,1,$1+$1,$2,$3,$4,$5,0*
20,1,$1+$1,$4,$5,$6,$7,0*
20,1,$1+$1,$6,$7,$8,$9,0*
20,1,$1+$1,$8,$9,$2,$3,0*%
G04 Aperture macros list end*
%TA.AperFunction,SMDPad,CuDef*%
%ADD10RoundRect,0.218750X0.218750X0.256250X-0.218750X0.256250X-0.218750X-0.256250X0.218750X-0.256250X0*%
%TD*%
%TA.AperFunction,ComponentPad*%
%ADD11R,1.700000X1.700000*%
%TD*%
%TA.AperFunction,ComponentPad*%
%ADD12O,1.700000X1.700000*%
%TD*%
%TA.AperFunction,SMDPad,CuDef*%
%ADD13RoundRect,0.225000X-0.250000X0.225000X-0.250000X-0.225000X0.250000X-0.225000X0.250000X0.225000X0*%
%TD*%
%TA.AperFunction,ComponentPad*%
%ADD14R,3.300000X2.000000*%
%TD*%
%TA.AperFunction,ComponentPad*%
%ADD15R,2.000000X4.000000*%
%TD*%
%TA.AperFunction,ComponentPad*%
%ADD16R,2.000000X3.400000*%
%TD*%
%TA.AperFunction,SMDPad,CuDef*%
%ADD17RoundRect,0.250000X-0.312500X-1.450000X0.312500X-1.450000X0.312500X1.450000X-0.312500X1.450000X0*%
%TD*%
%TA.AperFunction,SMDPad,CuDef*%
%ADD18R,0.800000X0.500000*%
%TD*%
%TA.AperFunction,SMDPad,CuDef*%
%ADD19R,0.800000X0.400000*%
%TD*%
%TA.AperFunction,SMDPad,CuDef*%
%ADD20R,1.500000X2.000000*%
%TD*%
%TA.AperFunction,SMDPad,CuDef*%
%ADD21R,3.800000X2.000000*%
%TD*%
%TA.AperFunction,SMDPad,CuDef*%
%ADD22RoundRect,0.225000X0.225000X0.250000X-0.225000X0.250000X-0.225000X-0.250000X0.225000X-0.250000X0*%
%TD*%
%TA.AperFunction,ViaPad*%
%ADD23C,0.800000*%
%TD*%
%TA.AperFunction,Conductor*%
%ADD24C,0.250000*%
%TD*%
%TA.AperFunction,Conductor*%
%ADD25C,0.500000*%
%TD*%
G04 APERTURE END LIST*
D10*
%TO.P,D2,1,K*%
%TO.N,Net-(D2-K)*%
X120300000Y-87200000D03*
%TO.P,D2,2,A*%
%TO.N,/TX*%
X118725000Y-87200000D03*
%TD*%
D11*
%TO.P,J7,1,Pin_1*%
%TO.N,/IO14*%
X42310000Y-62220000D03*
D12*
%TO.P,J7,2,Pin_2*%
%TO.N,/IO27*%
X44850000Y-62220000D03*
%TO.P,J7,3,Pin_3*%
%TO.N,/IO26*%
X47390000Y-62220000D03*
%TO.P,J7,4,Pin_4*%
%TO.N,/IO25*%
X49930000Y-62220000D03*
%TO.P,J7,5,Pin_5*%
%TO.N,/IO33*%
X52470000Y-62220000D03*
%TO.P,J7,6,Pin_6*%
%TO.N,/IO32*%
X55010000Y-62220000D03*
%TO.P,J7,7,Pin_7*%
%TO.N,/IO35*%
X57550000Y-62220000D03*
%TO.P,J7,8,Pin_8*%
%TO.N,/IO34*%
X60090000Y-62220000D03*
%TO.P,J7,9,Pin_9*%
%TO.N,/IO39*%
X62630000Y-62220000D03*
%TO.P,J7,10,Pin_10*%
%TO.N,/IO36*%
X65170000Y-62220000D03*
%TO.P,J7,11,Pin_11*%
%TO.N,/ADC0*%
X67710000Y-62220000D03*
%TO.P,J7,12,Pin_12*%
%TO.N,unconnected-(J7-Pin_12-Pad12)*%
X70250000Y-62220000D03*
%TO.P,J7,13,Pin_13*%
%TO.N,unconnected-(J7-Pin_13-Pad13)*%
X72790000Y-62220000D03*
%TO.P,J7,14,Pin_14*%
%TO.N,unconnected-(J7-Pin_14-Pad14)*%
X75330000Y-62220000D03*
%TD*%
D13*
%TO.P,C1,1*%
%TO.N,+5V*%
X126100000Y-61300000D03*
%TO.P,C1,2*%
%TO.N,GND*%
X126100000Y-62850000D03*
%TD*%
D14*
%TO.P,J10,*%
%TO.N,*%
X122772500Y-82400000D03*
X122772500Y-73400000D03*
D15*
%TO.P,J10,1,1*%
%TO.N,Net-(F1-Pad1)*%
X115722500Y-77900000D03*
D16*
%TO.P,J10,2,2*%
%TO.N,GND*%
X121722500Y-77900000D03*
%TD*%
D10*
%TO.P,D1,1,K*%
%TO.N,Net-(D1-K)*%
X120300000Y-85140000D03*
%TO.P,D1,2,A*%
%TO.N,+3.3V*%
X118725000Y-85140000D03*
%TD*%
%TO.P,D3,1,K*%
%TO.N,Net-(D3-K)*%
X120300000Y-89240000D03*
%TO.P,D3,2,A*%
%TO.N,/RX*%
X118725000Y-89240000D03*
%TD*%
D11*
%TO.P,J3,1,Pin_1*%
%TO.N,/TX*%
X114475000Y-45650000D03*
D12*
%TO.P,J3,2,Pin_2*%
%TO.N,/RX*%
X114475000Y-48190000D03*
%TO.P,J3,3,Pin_3*%
%TO.N,/IO5*%
X114475000Y-50730000D03*
%TO.P,J3,4,Pin_4*%
%TO.N,/IO4*%
X114475000Y-53270000D03*
%TO.P,J3,5,Pin_5*%
%TO.N,/IO0*%
X114475000Y-55810000D03*
%TO.P,J3,6,Pin_6*%
%TO.N,/IO2*%
X114475000Y-58350000D03*
%TO.P,J3,7,Pin_7*%
%TO.N,GND*%
X114475000Y-60890000D03*
%TO.P,J3,8,Pin_8*%
%TO.N,+5V*%
X114475000Y-63430000D03*
%TD*%
D11*
%TO.P,J8,1,Pin_1*%
%TO.N,+5V*%
X79370000Y-91760000D03*
D12*
%TO.P,J8,2,Pin_2*%
%TO.N,GND*%
X79370000Y-89220000D03*
%TD*%
D11*
%TO.P,J1,1,Pin_1*%
%TO.N,+3.3V*%
X97425000Y-50770000D03*
D12*
%TO.P,J1,2,Pin_2*%
%TO.N,/RX*%
X97425000Y-53310000D03*
%TO.P,J1,3,Pin_3*%
%TO.N,unconnected-(J1-Pin_3-Pad3)*%
X99965000Y-50770000D03*
%TO.P,J1,4,Pin_4*%
%TO.N,/IO0*%
X99965000Y-53310000D03*
%TO.P,J1,5,Pin_5*%
%TO.N,unconnected-(J1-Pin_5-Pad5)*%
X102505000Y-50770000D03*
%TO.P,J1,6,Pin_6*%
%TO.N,/IO2*%
X102505000Y-53310000D03*
%TO.P,J1,7,Pin_7*%
%TO.N,/TX*%
X105045000Y-50770000D03*
%TO.P,J1,8,Pin_8*%
%TO.N,GND*%
X105045000Y-53310000D03*
%TD*%
D11*
%TO.P,J4,1,Pin_1*%
%TO.N,unconnected-(J4-Pin_1-Pad1)*%
X87935000Y-45650000D03*
D12*
%TO.P,J4,2,Pin_2*%
%TO.N,unconnected-(J4-Pin_2-Pad2)*%
X87935000Y-48190000D03*
%TO.P,J4,3,Pin_3*%
%TO.N,/IO36*%
X87935000Y-50730000D03*
%TO.P,J4,4,Pin_4*%
%TO.N,/IO39*%
X87935000Y-53270000D03*
%TO.P,J4,5,Pin_5*%
%TO.N,/IO34*%
X87935000Y-55810000D03*
%TO.P,J4,6,Pin_6*%
%TO.N,/IO35*%
X87935000Y-58350000D03*
%TO.P,J4,7,Pin_7*%
%TO.N,/IO32*%
X87935000Y-60890000D03*
%TO.P,J4,8,Pin_8*%
%TO.N,/IO33*%
X87935000Y-63430000D03*
%TO.P,J4,9,Pin_9*%
%TO.N,/IO25*%
X87935000Y-65970000D03*
%TO.P,J4,10,Pin_10*%
%TO.N,/IO26*%
X87935000Y-68510000D03*
%TO.P,J4,11,Pin_11*%
%TO.N,/IO27*%
X87935000Y-71050000D03*
%TO.P,J4,12,Pin_12*%
%TO.N,/IO14*%
X87935000Y-73590000D03*
%TO.P,J4,13,Pin_13*%
%TO.N,/IO12*%
X87935000Y-76130000D03*
%TO.P,J4,14,Pin_14*%
%TO.N,GND*%
X87935000Y-78670000D03*
%TO.P,J4,15,Pin_15*%
%TO.N,/IO13*%
X87935000Y-81210000D03*
%TO.P,J4,16,Pin_16*%
%TO.N,unconnected-(J4-Pin_16-Pad16)*%
X87935000Y-83750000D03*
%TO.P,J4,17,Pin_17*%
%TO.N,unconnected-(J4-Pin_17-Pad17)*%
X87935000Y-86290000D03*
%TO.P,J4,18,Pin_18*%
%TO.N,unconnected-(J4-Pin_18-Pad18)*%
X87935000Y-88830000D03*
%TO.P,J4,19,Pin_19*%
%TO.N,+5V*%
X87935000Y-91370000D03*
%TD*%
D17*
%TO.P,F1,1*%
%TO.N,Net-(F1-Pad1)*%
X117300000Y-68800000D03*
%TO.P,F1,2*%
%TO.N,+5V*%
X121575000Y-68800000D03*
%TD*%
D11*
%TO.P,J5,1,Pin_1*%
%TO.N,GND*%
X110775000Y-45650000D03*
D12*
%TO.P,J5,2,Pin_2*%
%TO.N,/IO23*%
X110775000Y-48190000D03*
%TO.P,J5,3,Pin_3*%
%TO.N,/IO22*%
X110775000Y-50730000D03*
%TO.P,J5,4,Pin_4*%
%TO.N,/TX*%
X110775000Y-53270000D03*
%TO.P,J5,5,Pin_5*%
%TO.N,/RX*%
X110775000Y-55810000D03*
%TO.P,J5,6,Pin_6*%
%TO.N,/IO21*%
X110775000Y-58350000D03*
%TO.P,J5,7,Pin_7*%
%TO.N,GND*%
X110775000Y-60890000D03*
%TO.P,J5,8,Pin_8*%
%TO.N,/IO19*%
X110775000Y-63430000D03*
%TO.P,J5,9,Pin_9*%
%TO.N,/IO18*%
X110775000Y-65970000D03*
%TO.P,J5,10,Pin_10*%
%TO.N,/IO5*%
X110775000Y-68510000D03*
%TO.P,J5,11,Pin_11*%
%TO.N,/IO17*%
X110775000Y-71050000D03*
%TO.P,J5,12,Pin_12*%
%TO.N,/IO16*%
X110775000Y-73590000D03*
%TO.P,J5,13,Pin_13*%
%TO.N,/IO4*%
X110775000Y-76130000D03*
%TO.P,J5,14,Pin_14*%
%TO.N,/IO0*%
X110775000Y-78670000D03*
%TO.P,J5,15,Pin_15*%
%TO.N,/IO2*%
X110775000Y-81210000D03*
%TO.P,J5,16,Pin_16*%
%TO.N,/IO15*%
X110775000Y-83750000D03*
%TO.P,J5,17,Pin_17*%
%TO.N,unconnected-(J5-Pin_17-Pad17)*%
X110775000Y-86290000D03*
%TO.P,J5,18,Pin_18*%
%TO.N,unconnected-(J5-Pin_18-Pad18)*%
X110775000Y-88830000D03*
%TO.P,J5,19,Pin_19*%
%TO.N,unconnected-(J5-Pin_19-Pad19)*%
X110775000Y-91370000D03*
%TD*%
D18*
%TO.P,RN1,1,R1.1*%
%TO.N,GND*%
X125050000Y-88400000D03*
D19*
%TO.P,RN1,2,R2.1*%
X125050000Y-87600000D03*
%TO.P,RN1,3,R3.1*%
X125050000Y-86800000D03*
D18*
%TO.P,RN1,4,R4.1*%
X125050000Y-86000000D03*
%TO.P,RN1,5,R4.2*%
%TO.N,Net-(D3-K)*%
X123250000Y-86000000D03*
D19*
%TO.P,RN1,6,R3.2*%
%TO.N,Net-(D2-K)*%
X123250000Y-86800000D03*
%TO.P,RN1,7,R2.2*%
%TO.N,unconnected-(RN1-R2.2-Pad7)*%
X123250000Y-87600000D03*
D18*
%TO.P,RN1,8,R1.2*%
%TO.N,Net-(D1-K)*%
X123250000Y-88400000D03*
%TD*%
D11*
%TO.P,J2,1,Pin_1*%
%TO.N,unconnected-(J2-Pin_1-Pad1)*%
X91635000Y-45650000D03*
D12*
%TO.P,J2,2,Pin_2*%
%TO.N,/ADC0*%
X91635000Y-48190000D03*
%TO.P,J2,3,Pin_3*%
%TO.N,/IO16*%
X91635000Y-50730000D03*
%TO.P,J2,4,Pin_4*%
%TO.N,/IO14*%
X91635000Y-53270000D03*
%TO.P,J2,5,Pin_5*%
%TO.N,/IO12*%
X91635000Y-55810000D03*
%TO.P,J2,6,Pin_6*%
%TO.N,/IO13*%
X91635000Y-58350000D03*
%TO.P,J2,7,Pin_7*%
%TO.N,/IO15*%
X91635000Y-60890000D03*
%TO.P,J2,8,Pin_8*%
%TO.N,unconnected-(J2-Pin_8-Pad8)*%
X91635000Y-63430000D03*
%TD*%
D11*
%TO.P,J6,1,Pin_1*%
%TO.N,/IO12*%
X42310000Y-74900000D03*
D12*
%TO.P,J6,2,Pin_2*%
%TO.N,/IO13*%
X44850000Y-74900000D03*
%TO.P,J6,3,Pin_3*%
%TO.N,/IO16*%
X47390000Y-74900000D03*
%TO.P,J6,4,Pin_4*%
%TO.N,/IO15*%
X49930000Y-74900000D03*
%TO.P,J6,5,Pin_5*%
%TO.N,/IO23*%
X52470000Y-74900000D03*
%TO.P,J6,6,Pin_6*%
%TO.N,/IO22*%
X55010000Y-74900000D03*
%TO.P,J6,7,Pin_7*%
%TO.N,/IO21*%
X57550000Y-74900000D03*
%TO.P,J6,8,Pin_8*%
%TO.N,/IO19*%
X60090000Y-74900000D03*
%TO.P,J6,9,Pin_9*%
%TO.N,/IO18*%
X62630000Y-74900000D03*
%TO.P,J6,10,Pin_10*%
%TO.N,/IO5*%
X65170000Y-74900000D03*
%TO.P,J6,11,Pin_11*%
%TO.N,/IO17*%
X67710000Y-74900000D03*
%TO.P,J6,12,Pin_12*%
%TO.N,/IO4*%
X70250000Y-74900000D03*
%TO.P,J6,13,Pin_13*%
%TO.N,/IO2*%
X72790000Y-74900000D03*
%TO.P,J6,14,Pin_14*%
%TO.N,/IO0*%
X75330000Y-74900000D03*
%TD*%
D20*
%TO.P,U1,1,GND*%
%TO.N,GND*%
X119300000Y-61350000D03*
%TO.P,U1,2,VO*%
%TO.N,+3.3V*%
X121600000Y-61350000D03*
D21*
X121600000Y-55050000D03*
D20*
%TO.P,U1,3,VI*%
%TO.N,+5V*%
X123900000Y-61350000D03*
%TD*%
D22*
%TO.P,C2,1*%
%TO.N,+3.3V*%
X121550000Y-63500000D03*
%TO.P,C2,2*%
%TO.N,GND*%
X120000000Y-63500000D03*
%TD*%
D11*
%TO.P,J9,1,Pin_1*%
%TO.N,+3.3V*%
X79370000Y-47900000D03*
D12*
%TO.P,J9,2,Pin_2*%
%TO.N,GND*%
X79370000Y-45360000D03*
%TD*%
D23*
%TO.N,GND*%
X125050000Y-84910000D03*
X108000000Y-48800000D03*
X108500000Y-62200000D03*
X126100000Y-64000000D03*
X116700000Y-59600000D03*
X84350000Y-77970000D03*
X118800000Y-63500000D03*
%TO.N,+3.3V*%
X118700000Y-83900000D03*
X94512299Y-75412299D03*
X85600000Y-47900000D03*
X94100000Y-46900000D03*
X116700000Y-47000000D03*
X92500000Y-74400000D03*
X108500000Y-47000000D03*
%TO.N,Net-(D1-K)*%
X121500000Y-85200000D03*
X122100000Y-87600000D03*
%TO.N,/TX*%
X107300000Y-50770000D03*
X114724500Y-87200000D03*
X108550000Y-54700000D03*
X113200000Y-87200000D03*
%TO.N,Net-(D3-K)*%
X121500000Y-89200000D03*
X122100000Y-86000000D03*
%TO.N,/RX*%
X98987796Y-56900000D03*
X116700000Y-48200000D03*
X114764500Y-89240000D03*
X113200000Y-89200000D03*
X108550000Y-55800000D03*
%TO.N,/IO0*%
X99987299Y-56900000D03*
X90200000Y-90824500D03*
X108550000Y-78600000D03*
X104000000Y-80000000D03*
X83999647Y-87450353D03*
X116750000Y-55800000D03*
X103229000Y-56800000D03*
X106625500Y-78100000D03*
%TO.N,/IO2*%
X108537299Y-59737299D03*
X104000000Y-78900000D03*
X106498280Y-74324500D03*
X116700000Y-58375353D03*
X108550000Y-81200000D03*
%TO.N,/IO16*%
X89750000Y-72800000D03*
X107199503Y-73589503D03*
X84725500Y-72798695D03*
X104475500Y-73600000D03*
%TO.N,/IO14*%
X97400000Y-72000000D03*
X96400000Y-73590000D03*
%TO.N,/IO12*%
X92912299Y-76112299D03*
X96300000Y-72000000D03*
%TO.N,/IO13*%
X95150000Y-72000000D03*
X85450000Y-74900000D03*
X90976289Y-81349500D03*
%TO.N,/IO5*%
X102912701Y-75887299D03*
X106824500Y-68500000D03*
X116650000Y-50800000D03*
%TO.N,/IO4*%
X116750000Y-53300000D03*
X104000000Y-77800000D03*
X108550000Y-76100000D03*
X106450938Y-75476339D03*
%TO.N,/IO23*%
X98574952Y-71125048D03*
X97400000Y-75455305D03*
X101700000Y-57524500D03*
X104200000Y-57500000D03*
X90150000Y-78124500D03*
X85550000Y-77400000D03*
%TO.N,/IO22*%
X99600000Y-71100000D03*
X98600000Y-75455305D03*
X104200000Y-58600000D03*
X101700000Y-58600000D03*
%TO.N,/IO21*%
X99700000Y-75455305D03*
X100700000Y-71100000D03*
X84350000Y-80600000D03*
X90150000Y-80624500D03*
X104200000Y-59700000D03*
X101700000Y-59700000D03*
%TO.N,/IO19*%
X100800000Y-75455305D03*
X104475500Y-63400000D03*
X102000000Y-71100000D03*
X106824500Y-63400000D03*
%TO.N,/IO18*%
X106824500Y-66100000D03*
X83971558Y-82478442D03*
X101900000Y-75500000D03*
X90200000Y-83224500D03*
%TO.N,/IO17*%
X83950000Y-85000000D03*
X106824500Y-71050000D03*
X103762701Y-76737299D03*
X90200000Y-85724500D03*
%TD*%
D24*
%TO.N,+5V*%
X87935000Y-91370000D02*
X89965000Y-93400000D01*
X89965000Y-93400000D02*
X112100000Y-93400000D01*
X114000000Y-86500000D02*
X113500000Y-86000000D01*
X112100000Y-93400000D02*
X114000000Y-91500000D01*
X113500000Y-86000000D02*
X113500000Y-67300000D01*
X114000000Y-91500000D02*
X114000000Y-86500000D01*
X113500000Y-67300000D02*
X114900000Y-65900000D01*
X114900000Y-65900000D02*
X116900000Y-65900000D01*
X126050000Y-61350000D02*
X126100000Y-61300000D01*
X121575000Y-68800000D02*
X123900000Y-66475000D01*
X116900000Y-65900000D02*
X120800000Y-65900000D01*
X87935000Y-91370000D02*
X85990000Y-91370000D01*
X120800000Y-65900000D02*
X121575000Y-66675000D01*
X85990000Y-91370000D02*
X85540000Y-91820000D01*
X123900000Y-61350000D02*
X126050000Y-61350000D01*
X85540000Y-91820000D02*
X79430000Y-91820000D01*
X121575000Y-66675000D02*
X121575000Y-68800000D01*
X114475000Y-63475000D02*
X116900000Y-65900000D01*
X123900000Y-66475000D02*
X123900000Y-64900000D01*
D25*
X79430000Y-91820000D02*
X79370000Y-91760000D01*
D24*
X123900000Y-64900000D02*
X123900000Y-61350000D01*
X114475000Y-63430000D02*
X114475000Y-63475000D01*
%TO.N,GND*%
X126100000Y-62850000D02*
X126100000Y-64000000D01*
X84350000Y-77970000D02*
X85050000Y-78670000D01*
X119300000Y-63000000D02*
X118800000Y-63500000D01*
X125050000Y-86800000D02*
X125050000Y-86000000D01*
X108500000Y-62200000D02*
X109810000Y-60890000D01*
X118800000Y-63500000D02*
X120000000Y-63500000D01*
X85050000Y-78670000D02*
X87935000Y-78670000D01*
X125050000Y-88400000D02*
X125050000Y-87600000D01*
X109810000Y-60890000D02*
X110775000Y-60890000D01*
X119300000Y-61350000D02*
X119300000Y-63000000D01*
X125050000Y-87600000D02*
X125050000Y-86800000D01*
X125050000Y-84910000D02*
X125050000Y-86000000D01*
%TO.N,+3.3V*%
X97425000Y-49090000D02*
X97425000Y-47000000D01*
X121600000Y-55050000D02*
X121600000Y-50300000D01*
X93500000Y-74400000D02*
X94512299Y-75412299D01*
X118300000Y-47000000D02*
X116700000Y-47000000D01*
X92500000Y-74400000D02*
X93500000Y-74400000D01*
X121600000Y-50300000D02*
X118300000Y-47000000D01*
X121600000Y-61350000D02*
X121600000Y-55050000D01*
X108500000Y-47000000D02*
X97425000Y-47000000D01*
X94200000Y-47000000D02*
X97425000Y-47000000D01*
X121550000Y-61400000D02*
X121600000Y-61350000D01*
X118700000Y-83900000D02*
X118700000Y-85115000D01*
X85600000Y-47900000D02*
X79370000Y-47900000D01*
X97425000Y-47600000D02*
X97425000Y-49090000D01*
X121550000Y-63500000D02*
X121550000Y-61400000D01*
X118700000Y-85115000D02*
X118725000Y-85140000D01*
X94100000Y-46900000D02*
X94200000Y-47000000D01*
X97425000Y-47600000D02*
X97425000Y-47575000D01*
X97425000Y-49090000D02*
X97425000Y-50770000D01*
%TO.N,Net-(D1-K)*%
X123190000Y-88340000D02*
X123250000Y-88400000D01*
X122900000Y-88400000D02*
X123250000Y-88400000D01*
X122100000Y-87600000D02*
X122900000Y-88400000D01*
X120300000Y-85140000D02*
X121440000Y-85140000D01*
X121440000Y-85140000D02*
X121500000Y-85200000D01*
%TO.N,Net-(D2-K)*%
X121500000Y-86800000D02*
X123250000Y-86800000D01*
X121100000Y-87200000D02*
X121500000Y-86800000D01*
X120300000Y-87200000D02*
X121100000Y-87200000D01*
%TO.N,/TX*%
X112850000Y-55345000D02*
X110775000Y-53270000D01*
X109345000Y-54700000D02*
X110775000Y-53270000D01*
X114475000Y-45650000D02*
X112300000Y-47825000D01*
X112300000Y-51745000D02*
X110775000Y-53270000D01*
X107300000Y-50770000D02*
X105045000Y-50770000D01*
X113200000Y-87200000D02*
X112850000Y-86850000D01*
X108550000Y-54700000D02*
X109345000Y-54700000D01*
X112300000Y-47825000D02*
X112300000Y-51745000D01*
X112850000Y-86850000D02*
X112850000Y-55345000D01*
X114724500Y-87200000D02*
X118725000Y-87200000D01*
%TO.N,Net-(D3-K)*%
X120300000Y-89240000D02*
X121460000Y-89240000D01*
X122100000Y-86000000D02*
X123250000Y-86000000D01*
X123210000Y-86040000D02*
X123250000Y-86000000D01*
X121460000Y-89240000D02*
X121500000Y-89200000D01*
%TO.N,/RX*%
X113200000Y-89200000D02*
X112400000Y-88400000D01*
X98987796Y-56900000D02*
X97425000Y-55337204D01*
X116690000Y-48190000D02*
X116700000Y-48200000D01*
X108550000Y-55800000D02*
X108560000Y-55810000D01*
X114764500Y-89240000D02*
X118725000Y-89240000D01*
X108560000Y-55810000D02*
X110775000Y-55810000D01*
X112400000Y-88400000D02*
X112400000Y-57435000D01*
X97425000Y-55337204D02*
X97425000Y-53310000D01*
X114475000Y-48190000D02*
X116690000Y-48190000D01*
X112400000Y-57435000D02*
X110775000Y-55810000D01*
%TO.N,Net-(F1-Pad1)*%
X117300000Y-68800000D02*
X115600000Y-68800000D01*
X114200000Y-70200000D02*
X114200000Y-76377500D01*
X114200000Y-76377500D02*
X115722500Y-77900000D01*
X115722500Y-76700000D02*
X115700000Y-76700000D01*
X115600000Y-68800000D02*
X114200000Y-70200000D01*
%TO.N,/IO0*%
X99987299Y-56900000D02*
X99965000Y-56877701D01*
X110805000Y-78700000D02*
X110775000Y-78670000D01*
X106625500Y-78100000D02*
X107125500Y-78600000D01*
X79900000Y-82611701D02*
X79900000Y-78050000D01*
X105650000Y-75700000D02*
X108550000Y-78600000D01*
X103229000Y-59754305D02*
X103899695Y-60425000D01*
X99965000Y-56877701D02*
X99965000Y-53310000D01*
X110705000Y-78600000D02*
X110775000Y-78670000D01*
X93175500Y-90824500D02*
X90200000Y-90824500D01*
X116740000Y-55810000D02*
X116750000Y-55800000D01*
X76750000Y-74900000D02*
X75330000Y-74900000D01*
X104000000Y-80000000D02*
X93175500Y-90824500D01*
X83999647Y-87450353D02*
X83999647Y-86711348D01*
X83999647Y-86711348D02*
X79900000Y-82611701D01*
X107125500Y-78600000D02*
X108550000Y-78600000D01*
X103229000Y-56800000D02*
X103229000Y-59754305D01*
X79900000Y-78050000D02*
X76750000Y-74900000D01*
X103899695Y-60425000D02*
X103925000Y-60425000D01*
X114475000Y-55810000D02*
X116740000Y-55810000D01*
X105650000Y-62150000D02*
X105650000Y-75700000D01*
X108550000Y-78600000D02*
X110705000Y-78600000D01*
X103925000Y-60425000D02*
X105650000Y-62150000D01*
%TO.N,/IO2*%
X102504500Y-59666201D02*
X103713299Y-60875000D01*
X79450000Y-78236396D02*
X77713604Y-76500000D01*
X102505000Y-53310000D02*
X102504500Y-53310500D01*
X106100000Y-73926220D02*
X106498280Y-74324500D01*
X102504500Y-53310500D02*
X102504500Y-59666201D01*
X106100000Y-62174598D02*
X106100000Y-73926220D01*
X104000000Y-78900000D02*
X92800000Y-90100000D01*
X108550000Y-81200000D02*
X110765000Y-81200000D01*
X79450000Y-83925305D02*
X79450000Y-78236396D01*
X108537299Y-59737299D02*
X106100000Y-62174598D01*
X110765000Y-81200000D02*
X110775000Y-81210000D01*
X103713299Y-60875000D02*
X103738604Y-60875000D01*
X105200000Y-77849902D02*
X108550000Y-81199902D01*
X77713604Y-76500000D02*
X74390000Y-76500000D01*
X114475000Y-58350000D02*
X116674647Y-58350000D01*
X108550000Y-81199902D02*
X108550000Y-81200000D01*
X103738604Y-60875000D02*
X105200000Y-62336396D01*
X116674647Y-58350000D02*
X116700000Y-58375353D01*
X74390000Y-76500000D02*
X72790000Y-74900000D01*
X105200000Y-62336396D02*
X105200000Y-77849902D01*
X92800000Y-90100000D02*
X85624695Y-90100000D01*
X85624695Y-90100000D02*
X79450000Y-83925305D01*
%TO.N,/ADC0*%
X86300000Y-51500000D02*
X77200000Y-60600000D01*
X77200000Y-60600000D02*
X69330000Y-60600000D01*
X91635000Y-48190000D02*
X90425000Y-49400000D01*
X86300000Y-50500000D02*
X86300000Y-51500000D01*
X69330000Y-60600000D02*
X67710000Y-62220000D01*
X87400000Y-49400000D02*
X86300000Y-50500000D01*
X90425000Y-49400000D02*
X87400000Y-49400000D01*
%TO.N,/IO16*%
X107200000Y-73590000D02*
X110775000Y-73590000D01*
X84725500Y-72284688D02*
X81640812Y-69200000D01*
X81640812Y-69200000D02*
X53090000Y-69200000D01*
X89500000Y-52865000D02*
X89500000Y-72550000D01*
X104475500Y-73600000D02*
X100025305Y-73600000D01*
X91635000Y-50730000D02*
X89500000Y-52865000D01*
X97850000Y-71424695D02*
X97850000Y-56945000D01*
X107199503Y-73589503D02*
X107200000Y-73590000D01*
X53090000Y-69200000D02*
X47390000Y-74900000D01*
X97850000Y-56945000D02*
X91635000Y-50730000D01*
X89500000Y-72550000D02*
X89750000Y-72800000D01*
X84725500Y-72798695D02*
X84725500Y-72284688D01*
X100025305Y-73600000D02*
X97850000Y-71424695D01*
%TO.N,/IO14*%
X47940000Y-67850000D02*
X42310000Y-62220000D01*
X92070000Y-53270000D02*
X91635000Y-53270000D01*
X82200000Y-67850000D02*
X47940000Y-67850000D01*
X97400000Y-58600000D02*
X92070000Y-53270000D01*
X87935000Y-73585000D02*
X82200000Y-67850000D01*
X96400000Y-73590000D02*
X87935000Y-73590000D01*
X87935000Y-73590000D02*
X87935000Y-73585000D01*
X97400000Y-72000000D02*
X97400000Y-58600000D01*
%TO.N,/IO12*%
X87935000Y-76130000D02*
X85900000Y-74095000D01*
X85900000Y-72186396D02*
X82013604Y-68300000D01*
X92912299Y-76112299D02*
X92894598Y-76130000D01*
X92894598Y-76130000D02*
X87935000Y-76130000D01*
X82013604Y-68300000D02*
X48910000Y-68300000D01*
X96300000Y-72000000D02*
X96300000Y-60475000D01*
X85900000Y-74095000D02*
X85900000Y-72186396D01*
X96300000Y-60475000D02*
X91635000Y-55810000D01*
X48910000Y-68300000D02*
X42310000Y-74900000D01*
%TO.N,/IO13*%
X51000000Y-68750000D02*
X44850000Y-74900000D01*
X95154952Y-71995048D02*
X95154952Y-61869952D01*
X88074500Y-81349500D02*
X87935000Y-81210000D01*
X87935000Y-81210000D02*
X87935000Y-81184293D01*
X90976289Y-81349500D02*
X88074500Y-81349500D01*
X85450000Y-72372792D02*
X81827208Y-68750000D01*
X95154952Y-61869952D02*
X91635000Y-58350000D01*
X95150000Y-72000000D02*
X95154952Y-71995048D01*
X85450000Y-74900000D02*
X85450000Y-72372792D01*
X81827208Y-68750000D02*
X51000000Y-68750000D01*
%TO.N,/IO15*%
X90000000Y-71000000D02*
X91865000Y-72865000D01*
X55180000Y-69650000D02*
X49930000Y-74900000D01*
X91865000Y-72865000D02*
X96700305Y-72865000D01*
X96700305Y-72865000D02*
X97450000Y-73614695D01*
X102780805Y-74730805D02*
X104750000Y-76700000D01*
X90000000Y-62500000D02*
X90000000Y-71000000D01*
X104750000Y-78425304D02*
X110074696Y-83750000D01*
X91635000Y-60890000D02*
X91610000Y-60890000D01*
X97450000Y-74730805D02*
X102780805Y-74730805D01*
X97450000Y-73614695D02*
X97450000Y-74730805D01*
X81454416Y-69650000D02*
X55180000Y-69650000D01*
X104750000Y-76700000D02*
X104750000Y-78425304D01*
X110074696Y-83750000D02*
X110775000Y-83750000D01*
X84000500Y-74750500D02*
X84000500Y-72196084D01*
X91610000Y-60890000D02*
X90000000Y-62500000D01*
X96269195Y-74730805D02*
X93600000Y-77400000D01*
X86650000Y-77400000D02*
X84000500Y-74750500D01*
X84000500Y-72196084D02*
X81454416Y-69650000D01*
X97450000Y-74730805D02*
X96269195Y-74730805D01*
X93600000Y-77400000D02*
X86650000Y-77400000D01*
%TO.N,/IO5*%
X93800000Y-85000000D02*
X85467811Y-85000000D01*
X67720000Y-72350000D02*
X65170000Y-74900000D01*
X110765000Y-68500000D02*
X110775000Y-68510000D01*
X85467811Y-85000000D02*
X81250000Y-80782189D01*
X81250000Y-73263960D02*
X80336040Y-72350000D01*
X116580000Y-50730000D02*
X116650000Y-50800000D01*
X106824500Y-68500000D02*
X110765000Y-68500000D01*
X114475000Y-50730000D02*
X116580000Y-50730000D01*
X81250000Y-80782189D02*
X81250000Y-73263960D01*
X102912701Y-75887299D02*
X93800000Y-85000000D01*
X80336040Y-72350000D02*
X67720000Y-72350000D01*
%TO.N,/IO4*%
X71900000Y-73250000D02*
X70250000Y-74900000D01*
X106450938Y-75476339D02*
X107926339Y-75476339D01*
X85424695Y-87500000D02*
X80350000Y-82425305D01*
X80350000Y-82425305D02*
X80350000Y-73636752D01*
X79963248Y-73250000D02*
X71900000Y-73250000D01*
X108550000Y-76100000D02*
X110745000Y-76100000D01*
X107926339Y-75476339D02*
X108550000Y-76100000D01*
X94300000Y-87500000D02*
X85424695Y-87500000D01*
X80350000Y-73636752D02*
X79963248Y-73250000D01*
X104000000Y-77800000D02*
X94300000Y-87500000D01*
X114475000Y-53270000D02*
X116720000Y-53270000D01*
X110745000Y-76100000D02*
X110775000Y-76130000D01*
X116720000Y-53270000D02*
X116750000Y-53300000D01*
%TO.N,/IO36*%
X85000000Y-53665000D02*
X85000000Y-61304416D01*
X66750000Y-63800000D02*
X65170000Y-62220000D01*
X85000000Y-61304416D02*
X82504416Y-63800000D01*
X82504416Y-63800000D02*
X66750000Y-63800000D01*
X87935000Y-50730000D02*
X85000000Y-53665000D01*
%TO.N,/IO39*%
X64660000Y-64250000D02*
X62630000Y-62220000D01*
X82690812Y-64250000D02*
X64660000Y-64250000D01*
X87935000Y-53270000D02*
X85450000Y-55755000D01*
X85450000Y-55755000D02*
X85450000Y-61490812D01*
X85450000Y-61490812D02*
X82690812Y-64250000D01*
%TO.N,/IO34*%
X85900000Y-57845000D02*
X85900000Y-61677208D01*
X62570000Y-64700000D02*
X60090000Y-62220000D01*
X82877208Y-64700000D02*
X62570000Y-64700000D01*
X87935000Y-55810000D02*
X85900000Y-57845000D01*
X87925000Y-55800000D02*
X87935000Y-55810000D01*
X85900000Y-61677208D02*
X82877208Y-64700000D01*
%TO.N,/IO35*%
X86350000Y-61863604D02*
X83063604Y-65150000D01*
X60480000Y-65150000D02*
X57550000Y-62220000D01*
X86350000Y-59935000D02*
X86350000Y-61863604D01*
X87935000Y-58350000D02*
X86350000Y-59935000D01*
X83063604Y-65150000D02*
X60480000Y-65150000D01*
%TO.N,/IO32*%
X58390000Y-65600000D02*
X55010000Y-62220000D01*
X87935000Y-60890000D02*
X87935000Y-60915000D01*
X87935000Y-60915000D02*
X83250000Y-65600000D01*
X83250000Y-65600000D02*
X58390000Y-65600000D01*
%TO.N,/IO33*%
X86056396Y-63430000D02*
X83436396Y-66050000D01*
X56300000Y-66050000D02*
X52470000Y-62220000D01*
X87935000Y-63430000D02*
X86056396Y-63430000D01*
X83436396Y-66050000D02*
X56300000Y-66050000D01*
%TO.N,/IO25*%
X87405000Y-66500000D02*
X54210000Y-66500000D01*
X87935000Y-65970000D02*
X87405000Y-66500000D01*
X54210000Y-66500000D02*
X49930000Y-62220000D01*
%TO.N,/IO26*%
X87935000Y-68510000D02*
X84132792Y-68510000D01*
X52120000Y-66950000D02*
X47390000Y-62220000D01*
X82572792Y-66950000D02*
X52120000Y-66950000D01*
X84132792Y-68510000D02*
X82572792Y-66950000D01*
%TO.N,/IO27*%
X82386396Y-67400000D02*
X50030000Y-67400000D01*
X87935000Y-71050000D02*
X86036396Y-71050000D01*
X86036396Y-71050000D02*
X82386396Y-67400000D01*
X50030000Y-67400000D02*
X44850000Y-62220000D01*
%TO.N,/IO23*%
X98574952Y-60649548D02*
X98574952Y-71125048D01*
X83500000Y-75350000D02*
X83500000Y-72331980D01*
X81268020Y-70100000D02*
X57270000Y-70100000D01*
X57270000Y-70100000D02*
X52470000Y-74900000D01*
X101700000Y-57524500D02*
X98574952Y-60649548D01*
X109200000Y-49765000D02*
X110775000Y-48190000D01*
X97400000Y-75455305D02*
X97400000Y-75500000D01*
X94775500Y-78124500D02*
X90150000Y-78124500D01*
X107300000Y-53563604D02*
X109200000Y-51663604D01*
X85550000Y-77400000D02*
X83500000Y-75350000D01*
X105613604Y-57500000D02*
X107300000Y-55813604D01*
X104200000Y-57500000D02*
X105613604Y-57500000D01*
X109200000Y-51663604D02*
X109200000Y-49765000D01*
X97400000Y-75500000D02*
X94775500Y-78124500D01*
X107300000Y-55813604D02*
X107300000Y-53563604D01*
X83500000Y-72331980D02*
X81268020Y-70100000D01*
%TO.N,/IO22*%
X107800000Y-56350000D02*
X107800000Y-53700000D01*
X83050000Y-78176701D02*
X83050000Y-72518376D01*
X98544695Y-75455305D02*
X94100000Y-79900000D01*
X83050000Y-72518376D02*
X81081624Y-70550000D01*
X105550000Y-58600000D02*
X107800000Y-56350000D01*
X107800000Y-53700000D02*
X110770000Y-50730000D01*
X84773299Y-79900000D02*
X83050000Y-78176701D01*
X99600000Y-71100000D02*
X99600000Y-60700000D01*
X98600000Y-75455305D02*
X98544695Y-75455305D01*
X104200000Y-58600000D02*
X105550000Y-58600000D01*
X59360000Y-70550000D02*
X55010000Y-74900000D01*
X99600000Y-60700000D02*
X101700000Y-58600000D01*
X94100000Y-79900000D02*
X84773299Y-79900000D01*
X81081624Y-70550000D02*
X59360000Y-70550000D01*
X110770000Y-50730000D02*
X110775000Y-50730000D01*
%TO.N,/IO21*%
X99700000Y-75455305D02*
X99694695Y-75455305D01*
X99694695Y-75455305D02*
X94525500Y-80624500D01*
X100700000Y-60700000D02*
X100700000Y-71100000D01*
X82600000Y-78850000D02*
X82600000Y-72704772D01*
X104200000Y-59700000D02*
X107550000Y-59700000D01*
X61450000Y-71000000D02*
X57550000Y-74900000D01*
X84350000Y-80600000D02*
X82600000Y-78850000D01*
X80895228Y-71000000D02*
X61450000Y-71000000D01*
X82600000Y-72704772D02*
X80895228Y-71000000D01*
X101700000Y-59700000D02*
X100700000Y-60700000D01*
X108900000Y-58350000D02*
X110775000Y-58350000D01*
X94525500Y-80624500D02*
X90150000Y-80624500D01*
X107550000Y-59700000D02*
X108900000Y-58350000D01*
%TO.N,/IO19*%
X102000000Y-71100000D02*
X102000000Y-65875500D01*
X80708832Y-71450000D02*
X63540000Y-71450000D01*
X82150000Y-79632285D02*
X82150000Y-72891168D01*
X93800000Y-82500000D02*
X85017715Y-82500000D01*
X85017715Y-82500000D02*
X82150000Y-79632285D01*
X100800000Y-75500000D02*
X93800000Y-82500000D01*
X102000000Y-65875500D02*
X104475500Y-63400000D01*
X63540000Y-71450000D02*
X60090000Y-74900000D01*
X106854500Y-63430000D02*
X110775000Y-63430000D01*
X100800000Y-75455305D02*
X100800000Y-75500000D01*
X82150000Y-72891168D02*
X80708832Y-71450000D01*
X106824500Y-63400000D02*
X106854500Y-63430000D01*
%TO.N,/IO18*%
X106954500Y-65970000D02*
X110775000Y-65970000D01*
X65630000Y-71900000D02*
X62630000Y-74900000D01*
X101900000Y-75500000D02*
X94175500Y-83224500D01*
X83928442Y-82478442D02*
X81700000Y-80250000D01*
X80522436Y-71900000D02*
X65630000Y-71900000D01*
X106824500Y-66100000D02*
X106954500Y-65970000D01*
X81700000Y-80250000D02*
X81700000Y-73077564D01*
X83971558Y-82478442D02*
X83928442Y-82478442D01*
X94175500Y-83224500D02*
X90200000Y-83224500D01*
X81700000Y-73077564D02*
X80522436Y-71900000D01*
%TO.N,/IO17*%
X80149644Y-72800000D02*
X69810000Y-72800000D01*
X94775500Y-85724500D02*
X90200000Y-85724500D01*
X103762701Y-76737299D02*
X94775500Y-85724500D01*
X106824500Y-71050000D02*
X110775000Y-71050000D01*
X83950000Y-85000000D02*
X80800000Y-81850000D01*
X69810000Y-72800000D02*
X67710000Y-74900000D01*
X80800000Y-73450356D02*
X80149644Y-72800000D01*
X80800000Y-81850000D02*
X80800000Y-73450356D01*
%TD*%
M02*
