%TF.GenerationSoftware,KiCad,Pcbnew,7.0.9-7.0.9~ubuntu22.04.1*%
%TF.CreationDate,2024-01-04T20:48:59-06:00*%
%TF.ProjectId,ESP Breadboard Expander,45535020-4272-4656-9164-626f61726420,v2.0*%
%TF.SameCoordinates,Original*%
%TF.FileFunction,Soldermask,Top*%
%TF.FilePolarity,Negative*%
%FSLAX46Y46*%
G04 Gerber Fmt 4.6, Leading zero omitted, Abs format (unit mm)*
G04 Created by KiCad (PCBNEW 7.0.9-7.0.9~ubuntu22.04.1) date 2024-01-04 20:48:59*
%MOMM*%
%LPD*%
G01*
G04 APERTURE LIST*
G04 Aperture macros list*
%AMRoundRect*
0 Rectangle with rounded corners*
0 $1 Rounding radius*
0 $2 $3 $4 $5 $6 $7 $8 $9 X,Y pos of 4 corners*
0 Add a 4 corners polygon primitive as box body*
4,1,4,$2,$3,$4,$5,$6,$7,$8,$9,$2,$3,0*
0 Add four circle primitives for the rounded corners*
1,1,$1+$1,$2,$3*
1,1,$1+$1,$4,$5*
1,1,$1+$1,$6,$7*
1,1,$1+$1,$8,$9*
0 Add four rect primitives between the rounded corners*
20,1,$1+$1,$2,$3,$4,$5,0*
20,1,$1+$1,$4,$5,$6,$7,0*
20,1,$1+$1,$6,$7,$8,$9,0*
20,1,$1+$1,$8,$9,$2,$3,0*%
G04 Aperture macros list end*
%ADD10RoundRect,0.218750X0.218750X0.256250X-0.218750X0.256250X-0.218750X-0.256250X0.218750X-0.256250X0*%
%ADD11R,1.700000X1.700000*%
%ADD12O,1.700000X1.700000*%
%ADD13RoundRect,0.225000X-0.250000X0.225000X-0.250000X-0.225000X0.250000X-0.225000X0.250000X0.225000X0*%
%ADD14R,3.300000X2.000000*%
%ADD15R,2.000000X4.000000*%
%ADD16R,2.000000X3.400000*%
%ADD17RoundRect,0.250000X-0.312500X-1.450000X0.312500X-1.450000X0.312500X1.450000X-0.312500X1.450000X0*%
%ADD18R,0.500000X0.800000*%
%ADD19R,0.400000X0.800000*%
%ADD20R,1.500000X2.000000*%
%ADD21R,3.800000X2.000000*%
%ADD22RoundRect,0.225000X0.225000X0.250000X-0.225000X0.250000X-0.225000X-0.250000X0.225000X-0.250000X0*%
G04 APERTURE END LIST*
D10*
%TO.C,D2*%
X120975000Y-90600000D03*
X119400000Y-90600000D03*
%TD*%
D11*
%TO.C,J7*%
X42310000Y-62220000D03*
D12*
X44850000Y-62220000D03*
X47390000Y-62220000D03*
X49930000Y-62220000D03*
X52470000Y-62220000D03*
X55010000Y-62220000D03*
X57550000Y-62220000D03*
X60090000Y-62220000D03*
X62630000Y-62220000D03*
X65170000Y-62220000D03*
X67710000Y-62220000D03*
X70250000Y-62220000D03*
X72790000Y-62220000D03*
X75330000Y-62220000D03*
%TD*%
D13*
%TO.C,C1*%
X126100000Y-61300000D03*
X126100000Y-62850000D03*
%TD*%
D14*
%TO.C,J10*%
X122772500Y-82400000D03*
X122772500Y-73400000D03*
D15*
X115722500Y-77900000D03*
D16*
X121722500Y-77900000D03*
%TD*%
D10*
%TO.C,D1*%
X117687500Y-90600000D03*
X116112500Y-90600000D03*
%TD*%
%TO.C,D3*%
X124300000Y-90600000D03*
X122725000Y-90600000D03*
%TD*%
D11*
%TO.C,J3*%
X114475000Y-45650000D03*
D12*
X114475000Y-48190000D03*
X114475000Y-50730000D03*
X114475000Y-53270000D03*
X114475000Y-55810000D03*
X114475000Y-58350000D03*
X114475000Y-60890000D03*
X114475000Y-63430000D03*
%TD*%
D11*
%TO.C,J8*%
X79370000Y-91760000D03*
D12*
X79370000Y-89220000D03*
%TD*%
D11*
%TO.C,J1*%
X97425000Y-50770000D03*
D12*
X97425000Y-53310000D03*
X99965000Y-50770000D03*
X99965000Y-53310000D03*
X102505000Y-50770000D03*
X102505000Y-53310000D03*
X105045000Y-50770000D03*
X105045000Y-53310000D03*
%TD*%
D11*
%TO.C,J4*%
X87935000Y-45650000D03*
D12*
X87935000Y-48190000D03*
X87935000Y-50730000D03*
X87935000Y-53270000D03*
X87935000Y-55810000D03*
X87935000Y-58350000D03*
X87935000Y-60890000D03*
X87935000Y-63430000D03*
X87935000Y-65970000D03*
X87935000Y-68510000D03*
X87935000Y-71050000D03*
X87935000Y-73590000D03*
X87935000Y-76130000D03*
X87935000Y-78670000D03*
X87935000Y-81210000D03*
X87935000Y-83750000D03*
X87935000Y-86290000D03*
X87935000Y-88830000D03*
X87935000Y-91370000D03*
%TD*%
D17*
%TO.C,F1*%
X117300000Y-68800000D03*
X121575000Y-68800000D03*
%TD*%
D11*
%TO.C,J5*%
X110775000Y-45650000D03*
D12*
X110775000Y-48190000D03*
X110775000Y-50730000D03*
X110775000Y-53270000D03*
X110775000Y-55810000D03*
X110775000Y-58350000D03*
X110775000Y-60890000D03*
X110775000Y-63430000D03*
X110775000Y-65970000D03*
X110775000Y-68510000D03*
X110775000Y-71050000D03*
X110775000Y-73590000D03*
X110775000Y-76130000D03*
X110775000Y-78670000D03*
X110775000Y-81210000D03*
X110775000Y-83750000D03*
X110775000Y-86290000D03*
X110775000Y-88830000D03*
X110775000Y-91370000D03*
%TD*%
D18*
%TO.C,RN1*%
X119000000Y-86900000D03*
D19*
X119800000Y-86900000D03*
X120600000Y-86900000D03*
D18*
X121400000Y-86900000D03*
X121400000Y-85100000D03*
D19*
X120600000Y-85100000D03*
X119800000Y-85100000D03*
D18*
X119000000Y-85100000D03*
%TD*%
D11*
%TO.C,J2*%
X91635000Y-45650000D03*
D12*
X91635000Y-48190000D03*
X91635000Y-50730000D03*
X91635000Y-53270000D03*
X91635000Y-55810000D03*
X91635000Y-58350000D03*
X91635000Y-60890000D03*
X91635000Y-63430000D03*
%TD*%
D11*
%TO.C,J6*%
X42310000Y-74900000D03*
D12*
X44850000Y-74900000D03*
X47390000Y-74900000D03*
X49930000Y-74900000D03*
X52470000Y-74900000D03*
X55010000Y-74900000D03*
X57550000Y-74900000D03*
X60090000Y-74900000D03*
X62630000Y-74900000D03*
X65170000Y-74900000D03*
X67710000Y-74900000D03*
X70250000Y-74900000D03*
X72790000Y-74900000D03*
X75330000Y-74900000D03*
%TD*%
D20*
%TO.C,U1*%
X119300000Y-61350000D03*
X121600000Y-61350000D03*
D21*
X121600000Y-55050000D03*
D20*
X123900000Y-61350000D03*
%TD*%
D22*
%TO.C,C2*%
X121550000Y-63500000D03*
X120000000Y-63500000D03*
%TD*%
D11*
%TO.C,J9*%
X79370000Y-47900000D03*
D12*
X79370000Y-45360000D03*
%TD*%
M02*
